HIERARCHY
ROOT newVegas:Hips
{
	OFFSET 0.000000 96.479958 0.000000
	CHANNELS 6 Xposition Yposition Zposition Xrotation Yrotation Zrotation
	JOINT newVegas:Pelvis
	{
		OFFSET 0.000000 0.000000 0.000000
		CHANNELS 3 Xrotation Yrotation Zrotation
		JOINT newVegas:LeftUpLeg
		{
			OFFSET 18.735201 -5.666702 -4.541200
			CHANNELS 3 Xrotation Yrotation Zrotation
			JOINT newVegas:LeftLeg
			{
				OFFSET -0.021200 -31.938179 0.493100
				CHANNELS 3 Xrotation Yrotation Zrotation
				JOINT newVegas:LeftFoot
				{
					OFFSET 0.021200 -31.938179 -4.336299
					CHANNELS 3 Xrotation Yrotation Zrotation
					JOINT newVegas:LeftToeBase
					{
						OFFSET 0.943001 -26.722000 15.023500
						CHANNELS 3 Xrotation Yrotation Zrotation
						End Site
						{
							OFFSET 0.000000 30.670183 0.000000
						}
					}
				}
				JOINT newVegas:Left_PantLeg
				{
					OFFSET 0.663870 -9.044666 -1.108900
					CHANNELS 3 Xrotation Yrotation Zrotation
					End Site
					{
						OFFSET 1.415995 20.635357 0.000000
					}
				}
			}
		}
		JOINT newVegas:RightUpLeg
		{
			OFFSET -18.735201 -5.666702 -4.541200
			CHANNELS 3 Xrotation Yrotation Zrotation
			JOINT newVegas:RightLeg
			{
				OFFSET 0.018946 -31.938133 0.493100
				CHANNELS 3 Xrotation Yrotation Zrotation
				JOINT newVegas:RightFoot
				{
					OFFSET -0.018946 -31.938126 -4.336299
					CHANNELS 3 Xrotation Yrotation Zrotation
					JOINT newVegas:RightToeBase
					{
						OFFSET -0.943001 -26.722004 15.023500
						CHANNELS 3 Xrotation Yrotation Zrotation
						End Site
						{
							OFFSET 0.000000 30.670187 0.000000
						}
					}
				}
				JOINT newVegas:Right_PantLeg
				{
					OFFSET -0.661674 -9.044716 -1.108900
					CHANNELS 3 Xrotation Yrotation Zrotation
					End Site
					{
						OFFSET -1.415958 20.635269 0.000000
					}
				}
			}
		}
	}
	JOINT newVegas:Spine
	{
		OFFSET 0.000000 10.199997 -0.299500
		CHANNELS 3 Xrotation Yrotation Zrotation
		JOINT newVegas:Spine1
		{
			OFFSET 0.000000 11.900002 -1.516600
			CHANNELS 3 Xrotation Yrotation Zrotation
			JOINT newVegas:Spine2
			{
				OFFSET 0.000000 13.600006 -2.842500
				CHANNELS 3 Xrotation Yrotation Zrotation
				JOINT newVegas:Neck
				{
					OFFSET 0.000000 9.624100 -2.890100
					CHANNELS 3 Xrotation Yrotation Zrotation
					JOINT newVegas:Head
					{
						OFFSET 0.000000 14.068802 -1.351900
						CHANNELS 3 Xrotation Yrotation Zrotation
						JOINT newVegas:Hair_Back
						{
							OFFSET 0.000000 3.231903 -17.524799
							CHANNELS 3 Xrotation Yrotation Zrotation
							End Site
							{
								OFFSET 0.000000 19.849884 0.000000
							}
						}
						JOINT newVegas:Hair_Front
						{
							OFFSET 0.000000 31.260406 4.573800
							CHANNELS 3 Xrotation Yrotation Zrotation
							JOINT newVegas:Hair_Front1
							{
								OFFSET 0.000000 2.284103 11.993300
								CHANNELS 3 Xrotation Yrotation Zrotation
								JOINT newVegas:Hair_Front2
								{
									OFFSET 0.000000 2.284103 11.993300
									CHANNELS 3 Xrotation Yrotation Zrotation
									End Site
									{
										OFFSET 0.000000 12.208862 0.000000
									}
								}
							}
						}
						JOINT newVegas:Jowel
						{
							OFFSET 0.000000 -7.458206 6.864100
							CHANNELS 3 Xrotation Yrotation Zrotation
							End Site
							{
								OFFSET 0.000000 19.849884 0.000000
							}
						}
					}
				}
				JOINT newVegas:LeftShoulder
				{
					OFFSET 15.263000 10.923401 -0.547700
					CHANNELS 3 Xrotation Yrotation Zrotation
					JOINT newVegas:LeftArm
					{
						OFFSET 25.438599 -2.830597 -13.032500
						CHANNELS 3 Xrotation Yrotation Zrotation
						JOINT newVegas:LeftForeArm
						{
							OFFSET 29.960503 0.000000 0.000000
							CHANNELS 3 Xrotation Yrotation Zrotation
							JOINT newVegas:LeftHand
							{
								OFFSET 27.849251 0.000000 0.000000
								CHANNELS 3 Xrotation Yrotation Zrotation
								JOINT newVegas:LeftHandThumb1
								{
									OFFSET 4.487587 -3.305161 6.305391
									CHANNELS 3 Xrotation Yrotation Zrotation
									JOINT newVegas:LeftHandThumb2
									{
										OFFSET 5.480453 -3.164139 3.164143
										CHANNELS 3 Xrotation Yrotation Zrotation
										JOINT newVegas:LeftHandThumb3
										{
											OFFSET 5.159721 -2.978973 2.978967
											CHANNELS 3 Xrotation Yrotation Zrotation
											End Site
											{
												OFFSET 2.494507 5.926697 1.738678
											}
										}
									}
								}
								JOINT newVegas:LeftHandIndex1
								{
									OFFSET 18.578728 -0.527832 5.208049
									CHANNELS 3 Xrotation Yrotation Zrotation
									JOINT newVegas:LeftHandIndex2
									{
										OFFSET 3.192009 0.000000 0.000000
										CHANNELS 3 Xrotation Yrotation Zrotation
										JOINT newVegas:LeftHandIndex3
										{
											OFFSET 3.835129 0.000000 0.000000
											CHANNELS 3 Xrotation Yrotation Zrotation
											End Site
											{
												OFFSET -0.034599 3.816971 0.371180
											}
										}
									}
								}
								JOINT newVegas:LeftHandMiddle1
								{
									OFFSET 18.476105 0.000000 0.000000
									CHANNELS 3 Xrotation Yrotation Zrotation
									JOINT newVegas:LeftHandMiddle2
									{
										OFFSET 3.324875 0.000000 0.000000
										CHANNELS 3 Xrotation Yrotation Zrotation
										JOINT newVegas:LeftHandMiddle3
										{
											OFFSET 4.596550 0.000000 0.000000
											CHANNELS 3 Xrotation Yrotation Zrotation
											End Site
											{
												OFFSET 0.057701 4.578827 0.399218
											}
										}
									}
								}
								JOINT newVegas:LeftHandRing1
								{
									OFFSET 17.732719 0.121887 -4.201567
									CHANNELS 3 Xrotation Yrotation Zrotation
									JOINT newVegas:LeftHandRing2
									{
										OFFSET 2.733170 0.000000 0.000000
										CHANNELS 3 Xrotation Yrotation Zrotation
										JOINT newVegas:LeftHandRing3
										{
											OFFSET 3.178268 0.000000 0.000000
											CHANNELS 3 Xrotation Yrotation Zrotation
											End Site
											{
												OFFSET 0.119102 3.170624 0.185394
											}
										}
									}
								}
								JOINT newVegas:LeftHandPinky1
								{
									OFFSET 15.989624 -0.606689 -7.535461
									CHANNELS 3 Xrotation Yrotation Zrotation
									JOINT newVegas:LeftHandPinky2
									{
										OFFSET 2.538986 0.000000 0.000000
										CHANNELS 3 Xrotation Yrotation Zrotation
										JOINT newVegas:LeftHandPinky3
										{
											OFFSET 2.593102 0.000000 0.000000
											CHANNELS 3 Xrotation Yrotation Zrotation
											End Site
											{
												OFFSET -0.150902 2.584198 0.152708
											}
										}
									}
								}
							}
							JOINT newVegas:Left_Sleeve
							{
								OFFSET 0.267448 -0.649796 0.577675
								CHANNELS 3 Xrotation Yrotation Zrotation
								End Site
								{
									OFFSET 0.000000 15.991241 0.000000
								}
							}
							JOINT newVegas:Left_CapeC
							{
								OFFSET 15.715958 -8.608795 -6.935905
								CHANNELS 3 Xrotation Yrotation Zrotation
								JOINT newVegas:Left_CapeC1
								{
									OFFSET 0.000000 -8.688499 0.000000
									CHANNELS 3 Xrotation Yrotation Zrotation
									End Site
									{
										OFFSET 0.000000 8.688499 0.000000
									}
								}
							}
						}
						JOINT newVegas:Left_CapeB
						{
							OFFSET 26.118385 -8.608795 -7.079235
							CHANNELS 3 Xrotation Yrotation Zrotation
							JOINT newVegas:Left_CapeB1
							{
								OFFSET 0.000000 -8.688499 0.000000
								CHANNELS 3 Xrotation Yrotation Zrotation
								End Site
								{
									OFFSET 0.000000 8.688499 0.000000
								}
							}
						}
						JOINT newVegas:Left_CapeA
						{
							OFFSET 5.115639 -8.608795 -10.395809
							CHANNELS 3 Xrotation Yrotation Zrotation
							JOINT newVegas:Left_CapeA1
							{
								OFFSET 0.000000 -8.688499 0.000000
								CHANNELS 3 Xrotation Yrotation Zrotation
								End Site
								{
									OFFSET 0.000000 8.688499 0.000000
								}
							}
						}
					}
				}
				JOINT newVegas:RightShoulder
				{
					OFFSET -15.263000 10.923401 -0.547700
					CHANNELS 3 Xrotation Yrotation Zrotation
					JOINT newVegas:RightArm
					{
						OFFSET -25.438599 -2.830597 -13.032500
						CHANNELS 3 Xrotation Yrotation Zrotation
						JOINT newVegas:RightForeArm
						{
							OFFSET -29.960503 0.000000 0.000000
							CHANNELS 3 Xrotation Yrotation Zrotation
							JOINT newVegas:RightHand
							{
								OFFSET -27.849251 0.000000 0.000000
								CHANNELS 3 Xrotation Yrotation Zrotation
								JOINT newVegas:RightHandThumb1
								{
									OFFSET -4.487587 -3.305161 6.305391
									CHANNELS 3 Xrotation Yrotation Zrotation
									JOINT newVegas:RightHandThumb2
									{
										OFFSET -5.480453 -3.164139 3.164143
										CHANNELS 3 Xrotation Yrotation Zrotation
										JOINT newVegas:RightHandThumb3
										{
											OFFSET -5.159721 -2.978973 2.978967
											CHANNELS 3 Xrotation Yrotation Zrotation
											End Site
											{
												OFFSET -2.494507 5.926697 1.738678
											}
										}
									}
								}
								JOINT newVegas:RightHandIndex1
								{
									OFFSET -18.578728 -0.527832 5.208049
									CHANNELS 3 Xrotation Yrotation Zrotation
									JOINT newVegas:RightHandIndex2
									{
										OFFSET -3.192009 0.000000 0.000000
										CHANNELS 3 Xrotation Yrotation Zrotation
										JOINT newVegas:RightHandIndex3
										{
											OFFSET -3.835129 0.000000 0.000000
											CHANNELS 3 Xrotation Yrotation Zrotation
											End Site
											{
												OFFSET 0.034599 3.816971 0.371180
											}
										}
									}
								}
								JOINT newVegas:RightHandMiddle1
								{
									OFFSET -18.476105 0.000000 0.000000
									CHANNELS 3 Xrotation Yrotation Zrotation
									JOINT newVegas:RightHandMiddle2
									{
										OFFSET -3.324875 0.000000 0.000000
										CHANNELS 3 Xrotation Yrotation Zrotation
										JOINT newVegas:RightHandMiddle3
										{
											OFFSET -4.596550 0.000000 0.000000
											CHANNELS 3 Xrotation Yrotation Zrotation
											End Site
											{
												OFFSET -0.057701 4.578827 0.399218
											}
										}
									}
								}
								JOINT newVegas:RightHandRing1
								{
									OFFSET -17.732719 0.121887 -4.201567
									CHANNELS 3 Xrotation Yrotation Zrotation
									JOINT newVegas:RightHandRing2
									{
										OFFSET -2.733170 0.000000 0.000000
										CHANNELS 3 Xrotation Yrotation Zrotation
										JOINT newVegas:RightHandRing3
										{
											OFFSET -3.178268 0.000000 0.000000
											CHANNELS 3 Xrotation Yrotation Zrotation
											End Site
											{
												OFFSET -0.119102 3.170624 0.185394
											}
										}
									}
								}
								JOINT newVegas:RightHandPinky1
								{
									OFFSET -15.989624 -0.606689 -7.535461
									CHANNELS 3 Xrotation Yrotation Zrotation
									JOINT newVegas:RightHandPinky2
									{
										OFFSET -2.538986 0.000000 0.000000
										CHANNELS 3 Xrotation Yrotation Zrotation
										JOINT newVegas:RightHandPinky3
										{
											OFFSET -2.593102 0.000000 0.000000
											CHANNELS 3 Xrotation Yrotation Zrotation
											End Site
											{
												OFFSET 0.150902 2.584198 0.152708
											}
										}
									}
								}
							}
							JOINT newVegas:Right_CapeC
							{
								OFFSET -15.715958 -8.608795 -6.935905
								CHANNELS 3 Xrotation Yrotation Zrotation
								JOINT newVegas:Right_CapeC1
								{
									OFFSET 0.000000 -8.688499 0.000000
									CHANNELS 3 Xrotation Yrotation Zrotation
									End Site
									{
										OFFSET 0.000000 8.688499 0.000000
									}
								}
							}
							JOINT newVegas:Right_Sleeve
							{
								OFFSET -0.267448 -0.649994 0.577675
								CHANNELS 3 Xrotation Yrotation Zrotation
								End Site
								{
									OFFSET 0.000000 15.991302 0.000000
								}
							}
						}
						JOINT newVegas:Right_CapeA
						{
							OFFSET -5.115540 -8.608795 -10.395824
							CHANNELS 3 Xrotation Yrotation Zrotation
							JOINT newVegas:Right_CapeA1
							{
								OFFSET 0.000000 -8.688499 0.000000
								CHANNELS 3 Xrotation Yrotation Zrotation
								End Site
								{
									OFFSET 0.000000 8.688499 0.000000
								}
							}
						}
						JOINT newVegas:Right_CapeB
						{
							OFFSET -26.118187 -8.608795 -7.079266
							CHANNELS 3 Xrotation Yrotation Zrotation
							JOINT newVegas:Right_CapeB1
							{
								OFFSET 0.000000 -8.688499 0.000000
								CHANNELS 3 Xrotation Yrotation Zrotation
								End Site
								{
									OFFSET 0.000000 8.688499 0.000000
								}
							}
						}
					}
				}
				JOINT newVegas:Left_Collar
				{
					OFFSET 18.625099 8.655502 8.828100
					CHANNELS 3 Xrotation Yrotation Zrotation
					JOINT newVegas:Left_Collar1
					{
						OFFSET 14.783401 10.540405 -1.259500
						CHANNELS 3 Xrotation Yrotation Zrotation
						End Site
						{
							OFFSET 0.000000 18.199875 0.000000
						}
					}
				}
				JOINT newVegas:Collar_Back
				{
					OFFSET 0.000000 15.630707 -20.132601
					CHANNELS 3 Xrotation Yrotation Zrotation
					End Site
					{
						OFFSET 0.000000 22.523010 0.000000
					}
				}
				JOINT newVegas:Left_Peck
				{
					OFFSET 17.239599 -5.132599 25.482599
					CHANNELS 3 Xrotation Yrotation Zrotation
					End Site
					{
						OFFSET 0.000000 22.523010 0.000000
					}
				}
				JOINT newVegas:Right_Peck
				{
					OFFSET -17.239599 -5.132202 25.482599
					CHANNELS 3 Xrotation Yrotation Zrotation
					End Site
					{
						OFFSET 0.000000 22.523010 0.000000
					}
				}
				JOINT newVegas:Right_Collar
				{
					OFFSET -18.625099 8.655792 8.828100
					CHANNELS 3 Xrotation Yrotation Zrotation
					JOINT newVegas:Right_Collar1
					{
						OFFSET -14.783401 10.539993 -1.259500
						CHANNELS 3 Xrotation Yrotation Zrotation
						End Site
						{
							OFFSET 0.000000 18.199631 0.000000
						}
					}
				}
			}
		}
		JOINT newVegas:Belly
		{
			OFFSET 0.000000 -6.540398 9.014299
			CHANNELS 3 Xrotation Yrotation Zrotation
			End Site
			{
				OFFSET 0.000000 11.566666 0.000000
			}
		}
	}
	JOINT newVegas:ElvisFacialAnim_Joint
	{
		OFFSET 1.000000 -95.330101 -8.825800
		CHANNELS 3 Xrotation Yrotation Zrotation
		End Site
		{
			OFFSET 0.000000 35.315800 0.000000
		}
	}
}
MOTION
Frames: 4
Frame Time: 0.033333
-7.349636 37.021091 -56.099319 -138.448098 23.538191 26.971232 0.000001 -0.000001 -0.000001 -2.920804 22.841930 17.504233 -0.446435 -1.232543 -1.655758 32.218190 -7.121718 -31.253412 -0.000000 0.000001 0.000003 0.000001 0.000002 0.000000 -60.505347 20.346351 -27.282769 48.660078 -1.638640 -15.171143 29.365849 -5.328702 11.460442 -0.000005 -0.000001 -0.000000 -0.000000 0.000000 -0.000001 5.703451 -4.112241 2.860588 17.461795 -8.495692 6.531937 17.939941 -7.688558 5.343465 -3.371049 -2.138532 -0.240501 -3.371048 -2.138532 -0.240503 -0.000000 0.000000 -0.000001 -3.370978 -2.138529 -0.240498 -3.371137 -2.138525 -0.240514 -0.000000 -0.000000 -0.000001 -0.000000 0.000000 -0.000001 2.815810 -8.284899 -2.969379 -25.966175 0.163714 -15.309954 24.376182 -21.117866 -16.565316 32.494171 -18.434325 -26.914099 7.609219 10.257319 9.725296 -0.000083 -0.000584 0.002604 0.000001 0.000002 0.000001 0.136684 4.230759 19.447934 -0.389212 -4.872362 -27.810034 -0.000002 0.000001 0.000001 -0.027549 4.861459 14.160842 -0.363134 -5.592742 -33.022479 0.000004 0.000001 0.000000 0.005939 -0.001845 -7.217134 -1.734033 -1.649440 -46.815466 -0.000004 -0.000004 0.000001 0.173509 0.661717 -24.640182 -0.438734 -0.669095 -42.954404 -0.000000 -0.000003 -0.000001 0.000000 -0.000000 0.000001 0.000000 -0.000000 0.000001 0.000000 0.000000 0.000000 -0.000001 0.000000 -0.000000 -0.000000 0.000000 -0.000000 -0.000001 0.000000 -0.000000 -0.000000 0.000000 -0.000000 -1.504439 -10.716160 -6.953466 -23.714622 5.720291 59.368544 91.166223 96.134749 -30.492881 -13.403146 -27.365126 -35.009931 24.939859 -21.182114 30.356011 9.254552 8.369212 -18.166399 0.000000 0.000000 0.000003 0.075905 -3.241634 61.876746 -0.171631 4.435493 66.221341 0.000002 0.000001 -0.000002 -1.012727 -0.335121 68.857418 -0.581428 4.991711 83.221286 0.000000 0.000000 -0.000000 1.104538 -4.764883 79.937577 -1.121232 1.488217 71.921448 -0.000001 0.000002 -0.000001 -3.693555 -0.086771 87.489826 -0.295507 0.305543 53.487833 0.000001 -0.000000 -0.000000 0.000002 0.000000 0.000003 -0.000000 -0.000001 -0.000001 0.000002 0.000000 0.000001 0.000002 -0.000003 0.000001 0.000002 -0.000002 0.000002 0.000002 -0.000003 0.000001 0.000002 -0.000002 0.000001 0.000000 -0.000001 0.000000 0.000000 -0.000001 0.000000 0.000000 -0.000001 0.000000 0.000000 -0.000001 0.000000 0.000000 -0.000001 0.000000 0.000000 -0.000001 0.000000 0.000000 -0.000001 0.000000 -0.000001 -0.000002 0.000000 0.000001 -0.000001 -0.000001 
-8.244583 37.675636 -58.237530 -137.934878 21.928333 26.921244 -0.000002 -0.000002 0.000001 -2.347906 23.630137 18.860744 -0.421552 0.517661 -0.593205 36.936427 -6.585391 -24.199809 -0.000000 -0.000001 -0.000000 -0.000000 -0.000000 -0.000003 -61.602419 22.915194 -24.262683 53.763305 2.267773 -14.370172 32.981191 -4.080605 10.329902 0.000002 -0.000001 0.000000 0.000001 0.000000 -0.000000 5.224636 -4.492974 1.991004 16.717983 -9.182264 5.850692 17.184529 -8.455123 4.624604 -3.270570 -1.890905 -0.530429 -3.270577 -1.890913 -0.530436 -0.000000 0.000001 -0.000002 -3.270580 -1.890906 -0.530437 -3.270581 -1.890914 -0.530430 -0.000000 0.000000 -0.000002 -0.000000 0.000001 -0.000002 2.061486 -7.770380 -8.103428 -25.615634 2.206905 -11.316620 22.665296 -18.853108 -17.889018 35.488205 -21.061138 -22.493756 7.669597 10.354523 9.155361 0.000124 -0.000150 0.000459 -0.000000 -0.000003 -0.000003 0.081776 4.385918 19.513075 -0.395718 -4.866170 -28.571755 -0.000000 0.000003 0.000001 -0.023650 4.855359 14.205939 -0.375182 -5.587834 -33.823811 0.000001 0.000001 0.000000 0.001317 -0.006623 -7.138753 -1.742053 -1.623398 -48.211085 -0.000000 0.000001 -0.000001 0.041366 0.094364 -25.808331 -0.447726 -0.663476 -43.614808 -0.000000 -0.000005 0.000002 -0.000000 0.000000 -0.000002 -0.000000 0.000000 -0.000002 0.000000 -0.000000 -0.000002 0.000003 0.000000 -0.000000 0.000003 0.000000 -0.000000 0.000003 0.000000 -0.000000 0.000003 -0.000000 -0.000000 -1.641342 -10.737093 -7.864871 -22.221705 4.708971 61.107817 70.453019 98.082480 -9.006897 -15.171942 -27.321300 -33.115380 24.939862 -21.182112 30.356004 9.254549 8.369233 -18.166396 0.000001 -0.000003 0.000001 0.075906 -3.241635 61.876746 -0.171632 4.435492 66.221341 0.000001 -0.000000 -0.000004 -1.012726 -0.335123 68.857418 -0.581429 4.991714 83.221286 -0.000001 0.000000 -0.000000 1.104542 -4.764889 79.937583 -1.121236 1.488219 71.921448 -0.000001 0.000001 -0.000000 -3.693551 -0.086774 87.489819 -0.295509 0.305543 53.487826 -0.000001 -0.000000 0.000001 0.000001 0.000001 0.000000 -0.000001 0.000001 0.000001 0.000001 0.000001 0.000000 -0.000000 -0.000002 -0.000002 -0.000000 -0.000001 -0.000001 -0.000000 -0.000002 -0.000002 -0.000000 -0.000001 -0.000001 -0.000000 0.000001 -0.000001 -0.000000 0.000001 -0.000001 -0.000000 0.000001 -0.000001 -0.000000 0.000001 -0.000001 -0.000000 0.000001 -0.000001 -0.000000 0.000001 -0.000001 -0.000000 0.000001 -0.000001 -0.000000 -0.000001 -0.000000 -0.000002 -0.000002 0.000001 
-9.475161 37.736355 -60.360199 -136.037137 20.867756 27.253109 0.000001 0.000000 -0.000001 -2.685370 22.686858 19.561684 0.917787 6.298002 0.184841 40.086971 -4.633817 -15.023682 -0.000001 0.000001 0.000002 -0.000000 0.000001 0.000001 -62.892880 25.313381 -22.234322 58.435895 2.275129 -13.829406 35.807939 -2.831210 9.327880 0.000001 -0.000000 -0.000000 -0.000004 -0.000002 0.000001 4.593494 -4.559193 1.064515 15.761879 -9.314271 5.174085 16.186664 -8.700510 3.948998 -3.094903 -1.273451 -0.454221 -3.094905 -1.273447 -0.454235 -0.000000 0.000000 0.000001 -3.094968 -1.273440 -0.454241 -3.094893 -1.273419 -0.454232 0.000002 -0.000000 -0.000002 -0.000000 0.000000 -0.000000 1.188827 -7.940645 -12.754414 -25.625861 3.291306 -8.438223 21.311444 -19.698807 -17.667060 30.555295 -21.121846 -20.498156 7.713410 10.401459 8.533972 0.056728 0.040329 0.046212 0.000003 -0.000004 -0.000001 0.122544 4.395387 19.139638 -0.403702 -4.858583 -29.473523 -0.000005 -0.000001 0.000001 -0.011534 4.835402 13.832432 -0.389315 -5.581888 -34.784156 0.000003 0.000000 0.000002 -0.018307 -0.022318 -7.441676 -1.749219 -1.593489 -49.319860 -0.000002 -0.000001 0.000002 -0.196907 -0.323678 -27.200352 -0.457495 -0.657091 -44.370681 -0.000000 -0.000005 0.000001 0.000000 0.000000 0.000000 0.000000 0.000000 0.000000 0.000000 -0.000000 -0.000000 0.000000 0.000000 -0.000000 0.000000 0.000000 -0.000000 0.000000 0.000000 -0.000000 0.000000 -0.000000 -0.000000 -1.576422 -10.731119 -8.054674 -19.379769 2.542714 60.703443 53.688296 101.581640 7.360268 -15.555699 -26.463122 -28.571593 24.939859 -21.182114 30.356014 9.254555 8.369229 -18.166403 0.000001 -0.000001 0.000001 0.075902 -3.241635 61.876746 -0.171633 4.435491 66.221341 -0.000002 0.000000 -0.000002 -1.012728 -0.335123 68.857418 -0.581429 4.991715 83.221286 0.000001 -0.000001 0.000000 1.104539 -4.764886 79.937583 -1.121234 1.488219 71.921448 -0.000001 -0.000001 -0.000001 -3.693551 -0.086775 87.489819 -0.295506 0.305543 53.487833 0.000002 0.000002 -0.000000 -0.000001 0.000001 -0.000000 -0.000002 0.000000 0.000000 -0.000001 0.000001 -0.000000 -0.000000 0.000002 -0.000002 -0.000000 0.000003 -0.000002 -0.000000 0.000002 -0.000002 -0.000000 0.000003 -0.000002 0.000000 0.000000 -0.000002 0.000000 0.000000 -0.000002 0.000000 0.000000 -0.000002 0.000000 0.000000 -0.000002 0.000000 0.000000 -0.000002 0.000000 0.000000 -0.000002 0.000000 0.000000 -0.000002 0.000001 0.000001 -0.000000 0.000001 0.000000 -0.000001 
-10.447315 37.447433 -61.989532 -133.140044 19.819361 27.610015 -0.000002 0.000001 0.000000 -5.930530 19.530460 20.952865 9.650028 15.039697 1.322456 35.864944 -2.382067 -8.418747 -0.000000 -0.000001 0.000000 -0.000004 -0.000000 -0.000000 -65.216046 28.304260 -20.002962 63.417897 0.761627 -13.474424 39.569601 -1.542188 8.477789 0.000000 -0.000000 0.000001 -0.000001 0.000002 -0.000002 3.876734 -4.428898 0.382691 14.488508 -9.059559 4.360259 14.853315 -8.551945 3.192421 -2.910963 -0.997356 -0.188768 -2.910961 -0.997358 -0.188753 0.000000 -0.000000 -0.000001 -2.910935 -0.997326 -0.188774 -2.910975 -0.997392 -0.188766 -0.000001 -0.000001 -0.000000 0.000000 -0.000000 -0.000001 0.447602 -7.883445 -16.880355 -25.780033 3.592265 -6.840908 19.923967 -21.386567 -17.021059 20.074283 -17.063703 -18.529393 7.740146 10.387598 7.773214 0.273017 0.194147 0.221475 0.000006 0.000001 -0.000001 0.296268 4.372638 17.694696 -0.413997 -4.848718 -30.633757 -0.000001 -0.000001 0.000002 0.028194 4.765137 12.394444 -0.407206 -5.573982 -36.028647 0.000002 -0.000001 -0.000001 -0.087441 -0.074762 -8.622799 -1.755932 -1.562507 -50.327658 -0.000000 0.000001 0.000002 -0.547577 -0.664102 -29.000539 -0.469772 -0.649027 -45.323274 -0.000000 -0.000003 0.000001 0.000000 0.000000 -0.000001 0.000000 0.000000 -0.000001 0.000000 -0.000001 -0.000001 -0.000000 0.000000 0.000000 -0.000000 0.000000 0.000000 -0.000000 0.000000 0.000000 -0.000000 -0.000000 0.000000 -1.436416 -10.747550 -7.362319 -16.041937 -0.380322 58.828836 42.461428 106.086997 17.059987 -15.602608 -25.476191 -20.929175 24.939857 -21.182109 30.356014 9.254563 8.369220 -18.166396 0.000000 -0.000003 0.000001 0.075904 -3.241633 61.876753 -0.171634 4.435489 66.221348 -0.000000 0.000001 -0.000002 -1.012722 -0.335124 68.857418 -0.581428 4.991715 83.221286 -0.000000 0.000000 0.000000 1.104544 -4.764886 79.937577 -1.121231 1.488221 71.921448 -0.000001 -0.000001 0.000001 -3.693551 -0.086774 87.489826 -0.295509 0.305545 53.487830 0.000001 0.000002 -0.000001 0.000002 0.000000 0.000002 0.000002 -0.000001 0.000002 0.000003 0.000002 0.000003 0.000000 -0.000001 0.000002 -0.000000 0.000000 0.000003 0.000000 -0.000001 0.000002 -0.000000 0.000000 0.000002 -0.000000 0.000000 -0.000001 -0.000000 0.000000 -0.000001 -0.000000 0.000000 -0.000001 -0.000000 0.000000 -0.000001 -0.000000 0.000000 -0.000001 -0.000000 0.000000 -0.000001 -0.000000 0.000000 -0.000001 0.000002 -0.000002 -0.000002 -0.000002 0.000001 0.000000 
